<svg width="192" height="192" viewBox="0 0 192 192" fill="none" xmlns="http://www.w3.org/2000/svg">
<g clip-path="url(#clip0_52431_1667)">
<path d="M22 84.5528C22 72.6723 31.0024 62.7248 42.824 61.5426L68.25 59V114.5L42.824 111.957C31.0024 110.775 22 100.828 22 88.9472V84.5528Z" fill="#FF4A37"/>
<path d="M151.5 143.86C151.5 150.405 143.767 153.878 138.876 149.53L135.031 146.112C118.474 131.395 98.8082 120.605 77.5 114.548L77.5 58.9403C98.8077 52.8924 118.474 42.108 135.028 27.3927L138.876 23.9726C143.767 19.6245 151.5 23.097 151.5 29.6417L151.5 143.86Z" fill="#3981F1"/>
<path d="M40.5 123.75H61.3677C65.4526 123.75 69.0538 126.429 70.2276 130.342L80.3388 164.046C81.229 167.013 79.007 170 75.9089 170H61.2573C57.1724 170 53.5712 167.321 52.3974 163.408L40.5 123.75Z" fill="#FF4A37"/>
<path d="M160.75 68.25C165.859 68.25 170 72.3914 170 77.5V96C170 101.109 165.859 105.25 160.75 105.25V68.25Z" fill="#3981F1"/>
</g>
<defs>
<clipPath id="clip0_52431_1667">
<rect width="148" height="148" fill="white" transform="translate(22 22)"/>
</clipPath>
</defs>
</svg>
